<?xml version="1.0" encoding="UTF-8" standalone="no"?>
<svg
   xmlns:dc="http://purl.org/dc/elements/1.1/"
   xmlns:cc="http://creativecommons.org/ns#"
   xmlns:rdf="http://www.w3.org/1999/02/22-rdf-syntax-ns#"
   xmlns:svg="http://www.w3.org/2000/svg"
   xmlns="http://www.w3.org/2000/svg"
   xmlns:sodipodi="http://sodipodi.sourceforge.net/DTD/sodipodi-0.dtd"
   xmlns:inkscape="http://www.inkscape.org/namespaces/inkscape"
   width="69.509315mm"
   height="21.721262mm"
   viewBox="0 0 246.29258 76.966319"
   version="1.1"
   id="svg2"
   inkscape:version="1.0.2 (e86c870879, 2021-01-15)"
   sodipodi:docname="logo.svg">
  <metadata
     id="metadata104">
    <rdf:RDF>
      <cc:Work
         rdf:about="">
        <dc:format>image/svg+xml</dc:format>
        <dc:type
           rdf:resource="http://purl.org/dc/dcmitype/StillImage" />
        <dc:title />
      </cc:Work>
    </rdf:RDF>
  </metadata>
  <defs
     id="defs102" />
  <sodipodi:namedview
     pagecolor="#ffffff"
     bordercolor="#666666"
     borderopacity="1"
     objecttolerance="10"
     gridtolerance="10"
     guidetolerance="10"
     inkscape:pageopacity="0"
     inkscape:pageshadow="2"
     inkscape:window-width="1920"
     inkscape:window-height="1136"
     id="namedview100"
     showgrid="false"
     inkscape:zoom="3.6369334"
     inkscape:cx="136.62847"
     inkscape:cy="29.732214"
     inkscape:window-x="1680"
     inkscape:window-y="27"
     inkscape:window-maximized="1"
     inkscape:current-layer="layer2"
     fit-margin-top="0"
     fit-margin-left="0"
     fit-margin-right="0"
     fit-margin-bottom="0"
     inkscape:document-rotation="0" />
  <g
     inkscape:groupmode="layer"
     id="layer3"
     inkscape:label="Background">
    <rect
       style="fill:#000080;stroke-width:1.02484"
       id="rect374"
       width="261.6347"
       height="86.887474"
       x="-6.2133822"
       y="-5.3848062" />
  </g>
  <g
     inkscape:groupmode="layer"
     id="layer2"
     inkscape:label="Logo">
    <g
       id="g4599"
       style="fill:#ffffff"
       transform="matrix(0.8264481,0,0,0.8264481,23.301687,15.448026)">
      <g
         id="g4595"
         style="fill:#ffffff">
        <path
           inkscape:connector-curvature="0"
           style="fill:#ffffff"
           id="path10"
           d="M 0.43163668,0.42786026 H 37.464491 V 10.799534 H 14.15408 v 9.908344 H 36.074505 V 31.079551 H 14.15408 V 53.640728 H 0.43163668 V 0.42583254 Z" />
        <path
           inkscape:connector-curvature="0"
           style="fill:#ffffff"
           id="path12"
           d="M 85.147741,2.7386304 V 13.714201 q -4.272064,-1.909783 -8.335663,-2.881964 -4.063599,-0.9721814 -7.675687,-0.9721814 -4.792734,0 -7.084869,1.3189654 -2.292134,1.318965 -2.292134,4.098178 0,2.083669 1.527431,3.264316 1.562998,1.146067 5.626597,1.978942 l 5.695757,1.146067 q 8.647868,1.735897 12.295523,5.278825 3.646667,3.541941 3.646667,10.072548 0,8.578709 -5.104939,12.781614 -5.070359,4.167338 -15.525259,4.167338 -4.932041,0 -9.898662,-0.937602 -4.96662,-0.937601 -9.933241,-2.778225 V 38.963248 q 4.966621,2.638918 9.586457,3.993451 4.653428,1.318966 8.96106,1.318966 4.375804,0 6.703506,-1.458272 2.326714,-1.458272 2.326714,-4.167338 0,-2.430453 -1.597578,-3.750406 -1.562999,-1.318965 -6.286574,-2.361294 L 62.60776,31.392288 q -7.780413,-1.666737 -11.392501,-5.313405 -3.577508,-3.646667 -3.577508,-9.829502 0,-7.7448467 5.0012,-11.9131723 5.0012,-4.1673376 14.379192,-4.1673376 4.272065,0 8.787174,0.65898868 4.51511,0.62440902 9.343412,1.90978272 z" />
      </g>
      <g
         id="g4587"
         style="fill:#ffffff">
        <path
           d="m 119.16421,15.144883 h 6.39031 V 54.04695 h -6.39031 z m 0,-15.14389501 h 6.39031 V 8.0936058 h -6.39031 z"
           id="path16"
           style="fill:#ffffff"
           inkscape:connector-curvature="0" />
        <path
           d="m 171.23024,30.566403 v 23.479559 h -6.39031 V 30.774869 q 0,-5.521871 -2.15283,-8.266504 -2.15283,-2.743646 -6.46046,-2.743646 -5.17509,0 -8.16178,3.298896 -2.98669,3.298895 -2.98669,8.99564 v 21.985719 h -6.42489 V 15.142907 h 6.42489 v 6.043529 q 2.29214,-3.507361 5.38355,-5.244246 3.126,-1.735897 7.1896,-1.735897 6.7035,0 10.14171,4.167338 3.4382,4.132758 3.4382,12.190796 z"
           id="path18"
           style="fill:#ffffff"
           inkscape:connector-curvature="0" />
        <path
           d="M 203.74101,9.8799e-4 V 5.3143928 h -6.11269 q -3.4382,0 -4.79274,1.3891125 -1.31896,1.3891126 -1.31896,5.0011997 v 3.438202 h 10.52406 v 4.966621 h -10.52406 v 33.934458 h -6.42489 V 20.109528 h -6.11269 v -4.966621 h 6.11269 v -2.709066 q 0,-6.4950392 3.02127,-9.4471503 Q 191.13427,0 197.69945,0 h 6.04353 z"
           id="path20"
           style="fill:#ffffff"
           inkscape:connector-curvature="0" />
        <g
           id="g4583"
           style="fill:#ffffff">
          <path
             d="m 223.14807,11.190951 h 5.85977 v 19.659993 h -5.85977 z"
             id="path96"
             style="fill:#ffffff"
             inkscape:connector-curvature="0" />
          <path
             inkscape:connector-curvature="0"
             id="path98"
             d="m 238.56641,18.833984 -3.5625,4.373047 c 3.18669,2.595529 5.21875,6.526605 5.21875,10.972657 0,7.843983 -6.2996,14.144531 -14.14454,14.144531 -7.84493,0 -14.14257,-6.300548 -14.14257,-14.144531 0,-4.414691 2.00119,-8.319554 5.14843,-10.916016 l -3.58984,-4.351563 c -4.39505,3.625893 -7.19922,9.138451 -7.19922,15.267579 0,10.89224 8.88994,19.785156 19.7832,19.785156 10.89327,0 19.78321,-8.892916 19.78321,-19.785156 0,-6.172855 -2.84447,-11.720855 -7.29492,-15.345704 z"
             style="color:#000000;font-style:normal;font-variant:normal;font-weight:normal;font-stretch:normal;font-size:medium;line-height:normal;font-family:sans-serif;text-indent:0;text-align:start;text-decoration:none;text-decoration-line:none;text-decoration-style:solid;text-decoration-color:#000000;letter-spacing:normal;word-spacing:normal;text-transform:none;writing-mode:lr-tb;direction:ltr;baseline-shift:baseline;text-anchor:start;white-space:normal;clip-rule:nonzero;display:inline;overflow:visible;visibility:visible;opacity:1;isolation:auto;mix-blend-mode:normal;color-interpolation:sRGB;color-interpolation-filters:linearRGB;solid-color:#000000;solid-opacity:1;fill:#ffffff;fill-opacity:1;fill-rule:nonzero;stroke:none;stroke-width:5.64009;stroke-linecap:butt;stroke-linejoin:miter;stroke-miterlimit:4;stroke-dasharray:none;stroke-dashoffset:0;stroke-opacity:1;color-rendering:auto;image-rendering:auto;shape-rendering:auto;text-rendering:auto;enable-background:accumulate" />
        </g>
      </g>
    </g>
  </g>
</svg>
